<?xml version="1.0" encoding="UTF-8"?>
<svg width="793px" height="350px" viewBox="0 0 793 350" version="1.1" xmlns="http://www.w3.org/2000/svg" xmlns:xlink="http://www.w3.org/1999/xlink">
    <!-- Generator: Sketch 42 (36781) - http://www.bohemiancoding.com/sketch -->
    <title>Slice</title>
    <desc>Created with Sketch.</desc>
    <defs></defs>
    <g id="Page-1" stroke="none" stroke-width="1" fill="none" fill-rule="evenodd">
        <g id="Artboard" transform="translate(-131.000000, -361.000000)">
            <g id="Group" transform="translate(96.000000, -127.000000)">
                <g id="BG_Fishness">
                    <g id="Page-1">
                        <path d="M861,430.5 C861,668.258453 668.258453,861 430.5,861 C192.741547,861 0,668.258453 0,430.5 C0,192.741547 192.741547,0 430.5,0 C668.258453,0 861,192.741547 861,430.5" id="Fill-1" fill="#FFFFFF"></path>
                        <path d="M813.166667,428.5 C813.166667,639.84106 641.84106,811.166667 430.5,811.166667 C219.15894,811.166667 47.8333333,639.84106 47.8333333,428.5 C47.8333333,217.15894 219.15894,45.8333333 430.5,45.8333333 C641.84106,45.8333333 813.166667,217.15894 813.166667,428.5" id="Fill-3" fill="#D6F8FA"></path>
                        <path d="M756.723333,430.5 C756.723333,610.66712 610.669033,756.723333 430.5,756.723333 C250.330967,756.723333 104.276667,610.66712 104.276667,430.5 C104.276667,250.330967 250.330967,104.276667 430.5,104.276667 C610.669033,104.276667 756.723333,250.330967 756.723333,430.5" id="Fill-5" fill="#A4E8F6"></path>
                        <path d="M708.89,430.5 C708.89,584.249727 584.249727,708.89 430.5,708.89 C276.750273,708.89 152.11,584.249727 152.11,430.5 C152.11,276.750273 276.750273,152.11 430.5,152.11 C584.249727,152.11 708.89,276.750273 708.89,430.5" id="Fill-7" fill="#54C3E3"></path>
                        <path d="M661.056667,430.5 C661.056667,557.834247 557.832333,661.056667 430.5,661.056667 C303.167667,661.056667 199.943333,557.834247 199.943333,430.5 C199.943333,303.167667 303.167667,199.943333 430.5,199.943333 C557.832333,199.943333 661.056667,303.167667 661.056667,430.5" id="Fill-9" fill="#43B6DE"></path>
                        <path d="M604.613333,430.5 C604.613333,526.660307 526.660307,604.613333 430.5,604.613333 C334.339693,604.613333 256.386667,526.660307 256.386667,430.5 C256.386667,334.339693 334.339693,256.386667 430.5,256.386667 C526.660307,256.386667 604.613333,334.339693 604.613333,430.5" id="Fill-11" fill="#7DD6EC"></path>
                        <path d="M556.78,430.5 C556.78,500.242913 500.242913,556.78 430.5,556.78 C360.757087,556.78 304.22,500.242913 304.22,430.5 C304.22,360.757087 360.757087,304.22 430.5,304.22 C500.242913,304.22 556.78,360.757087 556.78,430.5" id="Fill-13" fill="#D6F8FA"></path>
                        <path d="M508.946667,430.5 C508.946667,473.82552 473.82552,508.946667 430.5,508.946667 C387.17448,508.946667 352.053333,473.82552 352.053333,430.5 C352.053333,387.17448 387.17448,352.053333 430.5,352.053333 C473.82552,352.053333 508.946667,387.17448 508.946667,430.5" id="Fill-15" fill="#FFFFFF"></path>
                    </g>
                </g>
            </g>
        </g>
    </g>
</svg>